<svg data-v-30ea8ab2="" width="163" height="48" viewBox="0 0 163 48" fill="none"
    xmlns="http://www.w3.org/2000/svg">
    <path data-v-30ea8ab2=""
        d="M136.925 22.4144C139.053 20.1939 136.826 14.96 128.134 0.950509C127.494 0.779958 127.341 0.957746 127.394 1.69064C135.917 19.3892 132.576 21.1933 115.457 13.2552C114.711 13.1123 114.529 13.2534 114.717 13.9954C125.51 20.1796 133.409 25.1898 136.925 22.4144Z"
        fill="#153169"></path>
    <path data-v-30ea8ab2=""
        d="M140.103 22.8039C142.324 24.9318 147.559 22.7052 161.571 14.0148C161.742 13.3741 161.564 13.2219 160.831 13.2747C143.129 21.7963 141.325 18.4552 149.264 1.34005C149.407 0.593831 149.266 0.412118 148.524 0.599921C142.338 11.3912 137.327 19.2883 140.103 22.8039Z"
        fill="#EE412A"></path>
    <path data-v-30ea8ab2=""
        d="M139.725 25.5934C137.597 27.8139 139.824 33.0478 148.516 47.0573C149.157 47.2279 149.309 47.0501 149.256 46.3172C140.733 28.6186 144.075 26.8145 161.193 34.7526C161.939 34.8955 162.121 34.7545 161.933 34.0125C151.14 27.8282 143.242 22.818 139.725 25.5934Z"
        fill="#153169"></path>
    <path data-v-30ea8ab2=""
        d="M136.787 25.1961C134.567 23.0682 129.332 25.2948 115.32 33.9852C115.149 34.6259 115.327 34.7781 116.06 34.7253C133.762 26.2037 135.566 29.5448 127.627 46.6599C127.484 47.4062 127.625 47.5879 128.367 47.4001C134.552 36.6088 139.563 28.7117 136.787 25.1961Z"
        fill="#153169"></path>
    <rect data-v-30ea8ab2="" x="1" y="8.35156" width="4.11765" height="4.11765" fill="#153169"></rect>
    <rect data-v-30ea8ab2="" x="47.7345" y="42.3185" width="2.05882" height="2.05882" fill="#153169"
        stroke="#081E47" stroke-width="2.05882"></rect>
    <path data-v-30ea8ab2=""
        d="M102.295 8.35156V31.2045M95.5006 15.7633C95.5006 27.7045 95.0888 30.4324 83.7653 30.4324C72.4418 30.4324 72.03 25.4398 72.03 15.7633V39.2339M80.4712 37.7927H92.2065M64.8241 8.35156V31.2045M15.8241 16.381C24.2653 16.381 28.177 16.7927 28.177 23.381C28.0741 29.9692 23.8535 30.381 15.8241 30.381M9.85352 8.35156V31.2045M2.85352 15.7633V39.4398M42.3829 37.7927H54.1182M58.4418 15.7633C58.4418 27.7045 58.03 30.4324 46.7065 30.4324C35.3829 30.4324 34.9712 25.4398 34.9712 15.7633V39.2339"
        stroke="#153169" stroke-width="4.12" stroke-linejoin="round"></path>
</svg>